<svg width="1698" height="511" viewBox="0 0 1698 511" fill="none" xmlns="http://www.w3.org/2000/svg">
<path d="M263.234 284.858L304.843 278.991L291.435 303.967L262.657 303.967L263.234 284.858Z" fill="#949191"/>
<rect width="102.067" height="449.413" transform="matrix(0.96561 0.259994 -0.257648 0.966239 115.932 38.438)" fill="#949191"/>
<rect width="102.067" height="449.413" transform="matrix(-0.96561 0.259994 0.257648 0.966239 462.266 38.438)" fill="#D9D9D9"/>
<path d="M137.402 116.925L214.582 65.0566L331.332 239.885L262.594 304.128L137.402 116.925Z" fill="#949191"/>
<path d="M462.146 38.4378L363.709 65.0564L238.783 252.587L292.743 301.009L462.146 38.4378Z" fill="#949191"/>
<path d="M305.09 303.776L285.221 303.776L462.145 38.1094L305.09 303.776Z" fill="#949191"/>
<rect x="624.681" y="295.422" width="58.2117" height="113.047" fill="#949191"/>
<rect width="58.3142" height="112.849" transform="matrix(0.797895 0.602796 -0.599066 0.800699 692.285 205.379)" fill="#949191"/>
<rect width="58.3142" height="112.849" transform="matrix(-0.797895 0.602796 0.599066 0.800699 890.321 206.036)" fill="#D9D9D9"/>
<rect width="58.3142" height="112.849" transform="matrix(0.797895 -0.602796 -0.599066 -0.800699 692.285 499.145)" fill="#949191"/>
<rect width="58.3142" height="112.849" transform="matrix(-0.797895 -0.602796 0.599066 -0.800699 890.321 499.145)" fill="#D9D9D9"/>
<path d="M860.471 263.874L890.23 206.036L692.049 205.379V263.874L860.471 263.874Z" fill="#949191"/>
<rect width="58.4952" height="198.182" transform="matrix(0 -1 -1 0 890.23 499.17)" fill="#D9D9D9"/>
<rect x="899.387" y="296.08" width="58.2117" height="113.047" fill="#D9D9D9"/>
<path d="M692.049 440.674H721.482L692.049 499.17V440.674Z" fill="#949191"/>
<path d="M1198.95 273.102L1234.92 262.915L1242.12 431.499H1198.95V273.102Z" fill="#D9D9D9"/>
<rect x="1005.35" y="205.405" width="43.1682" height="293.79" fill="#949191"/>
<path d="M1130.27 239.372L1157.12 205.405L1234.6 262.915L1199.28 299.392L1130.27 239.372Z" fill="#949191"/>
<rect width="43.2972" height="108.78" transform="matrix(0.620144 0.784488 0.781545 -0.623849 1130.27 465.184)" fill="#D9D9D9"/>
<rect x="1005.35" y="499.196" width="43.3784" height="151.743" transform="rotate(-90 1005.35 499.196)" fill="#D9D9D9"/>
<path d="M1048.51 248.784V205.405H1157.09L1142.37 248.784H1048.51Z" fill="#949191"/>
<path d="M1005.35 455.817H1048.51L1005.35 499.196V455.817Z" fill="#949191"/>
<rect x="1517.48" y="217.21" width="43.1682" height="293.79" fill="#949191"/>
<rect x="1517.48" y="511" width="43.3784" height="180.522" transform="rotate(-90 1517.48 511)" fill="#D9D9D9"/>
<path d="M1517.48 467.622H1560.65L1517.48 511V467.622Z" fill="#949191"/>
<rect x="1289.21" y="511" width="43.3784" height="180.522" transform="rotate(-90 1289.21 511)" fill="#D9D9D9"/>
<rect x="1289.21" y="217.21" width="43.1682" height="293.79" fill="#949191"/>
<rect x="1289.21" y="260.588" width="43.3784" height="180.522" transform="rotate(-90 1289.21 260.588)" fill="#949191"/>
<rect x="1289.21" y="380.865" width="43.3784" height="111.191" transform="rotate(-90 1289.21 380.865)" fill="#949191"/>
<path d="M1469.73 230.355V260.588H1450.11L1469.73 230.355Z" fill="#D9D9D9"/>
<path d="M1400.4 337.486V380.865H1372.28L1400.4 337.486Z" fill="#D9D9D9"/>
<path d="M1332.38 444.618V511H1289.21L1332.38 444.618Z" fill="#D9D9D9"/>
</svg>
