<svg width="129" height="79" viewBox="0 0 129 79" fill="none" xmlns="http://www.w3.org/2000/svg">
<rect width="129" height="79" rx="15" fill="#2E2D2D"/>
<path d="M21 53.36C19.9867 53.36 19.2 53.08 18.64 52.52C18.1067 51.96 17.84 51.1467 17.84 50.08V28.04C17.84 27 18.12 26.2 18.68 25.64C19.24 25.08 20.04 24.8 21.08 24.8H34.76C35.56 24.8 36.16 25.0133 36.56 25.44C36.9867 25.84 37.2 26.4267 37.2 27.2C37.2 28 36.9867 28.6133 36.56 29.04C36.16 29.44 35.56 29.64 34.76 29.64H24.04V36.52H33.88C34.68 36.52 35.2933 36.7333 35.72 37.16C36.1467 37.56 36.36 38.1467 36.36 38.92C36.36 39.6933 36.1467 40.2933 35.72 40.72C35.2933 41.1467 34.68 41.36 33.88 41.36H24.04V50.08C24.04 52.2667 23.0267 53.36 21 53.36ZM48.8141 53.44C46.4407 53.44 44.6674 52.7867 43.4941 51.48C42.3207 50.1467 41.7341 48.1733 41.7341 45.56V27.52C41.7341 26.5067 41.9874 25.7467 42.4941 25.24C43.0274 24.7067 43.7874 24.44 44.7741 24.44C45.7341 24.44 46.4674 24.7067 46.9741 25.24C47.5074 25.7467 47.7741 26.5067 47.7741 27.52V45.32C47.7741 46.4133 48.0007 47.2267 48.4541 47.76C48.9341 48.2667 49.5607 48.52 50.3341 48.52C50.5474 48.52 50.7474 48.5067 50.9341 48.48C51.1207 48.4533 51.3207 48.44 51.5341 48.44C51.9607 48.3867 52.2541 48.52 52.4141 48.84C52.6007 49.1333 52.6941 49.7333 52.6941 50.64C52.6941 51.44 52.5341 52.0533 52.2141 52.48C51.8941 52.88 51.4007 53.1467 50.7341 53.28C50.4674 53.3067 50.1607 53.3333 49.8141 53.36C49.4674 53.4133 49.1341 53.44 48.8141 53.44ZM61.6944 53.44C60.2544 53.44 58.961 53.16 57.8144 52.6C56.6677 52.04 55.7744 51.28 55.1344 50.32C54.4944 49.36 54.1744 48.28 54.1744 47.08C54.1744 45.64 54.5477 44.5067 55.2944 43.68C56.041 42.8267 57.2544 42.2267 58.9344 41.88C60.6144 41.5067 62.841 41.32 65.6144 41.32H67.7344V44.44H65.6544C64.2944 44.44 63.1877 44.52 62.3344 44.68C61.5077 44.8133 60.9077 45.0533 60.5344 45.4C60.1877 45.7467 60.0144 46.2267 60.0144 46.84C60.0144 47.5867 60.2677 48.2 60.7744 48.68C61.3077 49.16 62.0677 49.4 63.0544 49.4C63.8277 49.4 64.5077 49.2267 65.0944 48.88C65.7077 48.5067 66.1877 48.0133 66.5344 47.4C66.881 46.76 67.0544 46.04 67.0544 45.24V40.64C67.0544 39.4667 66.7877 38.64 66.2544 38.16C65.721 37.6533 64.8144 37.4 63.5344 37.4C62.8144 37.4 62.0277 37.4933 61.1744 37.68C60.3477 37.84 59.4277 38.12 58.4144 38.52C57.8277 38.7867 57.3077 38.8533 56.8544 38.72C56.401 38.56 56.0544 38.2933 55.8144 37.92C55.5744 37.52 55.4544 37.0933 55.4544 36.64C55.4544 36.16 55.5877 35.7067 55.8544 35.28C56.121 34.8267 56.561 34.4933 57.1744 34.28C58.4277 33.7733 59.601 33.4267 60.6944 33.24C61.8144 33.0533 62.841 32.96 63.7744 32.96C65.8277 32.96 67.5077 33.2667 68.8144 33.88C70.1477 34.4667 71.1477 35.3867 71.8144 36.64C72.481 37.8667 72.8144 39.4533 72.8144 41.4V50.28C72.8144 51.2667 72.5744 52.0267 72.0944 52.56C71.6144 53.0933 70.921 53.36 70.0144 53.36C69.1077 53.36 68.401 53.0933 67.8944 52.56C67.4144 52.0267 67.1744 51.2667 67.1744 50.28V48.8L67.4544 49.04C67.2944 49.9467 66.9477 50.7333 66.4144 51.4C65.9077 52.04 65.2544 52.5467 64.4544 52.92C63.6544 53.2667 62.7344 53.44 61.6944 53.44ZM84.84 53.44C83.6667 53.44 82.4533 53.3333 81.2 53.12C79.9733 52.9067 78.8533 52.5467 77.84 52.04C77.3067 51.7733 76.92 51.44 76.68 51.04C76.4667 50.6133 76.3733 50.1867 76.4 49.76C76.4267 49.3333 76.56 48.9467 76.8 48.6C77.0667 48.2533 77.4 48.0267 77.8 47.92C78.2267 47.7867 78.6933 47.8267 79.2 48.04C80.2933 48.4933 81.2933 48.8133 82.2 49C83.1067 49.1867 84 49.28 84.88 49.28C86.0267 49.28 86.8533 49.1067 87.36 48.76C87.8933 48.3867 88.16 47.9067 88.16 47.32C88.16 46.7867 87.9867 46.3867 87.64 46.12C87.2933 45.8533 86.7867 45.6667 86.12 45.56L81.92 44.8C80.2667 44.5067 78.9867 43.9067 78.08 43C77.2 42.0667 76.76 40.88 76.76 39.44C76.76 38.1067 77.1333 36.96 77.88 36C78.6267 35.0133 79.6533 34.2667 80.96 33.76C82.2933 33.2267 83.8 32.96 85.48 32.96C86.68 32.96 87.7867 33.0667 88.8 33.28C89.8133 33.4933 90.7867 33.84 91.72 34.32C92.2 34.56 92.5333 34.88 92.72 35.28C92.9333 35.68 93 36.0933 92.92 36.52C92.8667 36.9467 92.7067 37.3333 92.44 37.68C92.1733 38.0267 91.8267 38.2533 91.4 38.36C91 38.4667 90.5333 38.4133 90 38.2C89.1467 37.8 88.36 37.52 87.64 37.36C86.92 37.1733 86.2267 37.08 85.56 37.08C84.36 37.08 83.4933 37.28 82.96 37.68C82.4267 38.0533 82.16 38.5333 82.16 39.12C82.16 39.5733 82.3067 39.96 82.6 40.28C82.92 40.5733 83.4 40.7733 84.04 40.88L88.24 41.64C89.9733 41.9333 91.2933 42.52 92.2 43.4C93.1067 44.2533 93.56 45.4267 93.56 46.92C93.56 48.9467 92.76 50.5467 91.16 51.72C89.5867 52.8667 87.48 53.44 84.84 53.44ZM100.048 53.36C99.0608 53.36 98.3008 53.0933 97.7675 52.56C97.2608 52.0267 97.0075 51.2667 97.0075 50.28V27.52C97.0075 26.5067 97.2608 25.7467 97.7675 25.24C98.3008 24.7067 99.0608 24.44 100.048 24.44C101.008 24.44 101.741 24.7067 102.248 25.24C102.781 25.7467 103.048 26.5067 103.048 27.52V41.48H103.128L108.928 35.04C109.514 34.3733 110.048 33.88 110.528 33.56C111.034 33.2133 111.701 33.04 112.528 33.04C113.354 33.04 113.981 33.2533 114.408 33.68C114.861 34.1067 115.088 34.6267 115.088 35.24C115.114 35.8267 114.861 36.4267 114.328 37.04L108.208 43.88V41.6L115.008 49.44C115.514 50.0533 115.728 50.6667 115.648 51.28C115.594 51.8933 115.328 52.4 114.848 52.8C114.368 53.1733 113.754 53.36 113.008 53.36C112.101 53.36 111.368 53.1867 110.808 52.84C110.274 52.4933 109.728 51.96 109.168 51.24L103.128 44.52H103.048V50.28C103.048 52.3333 102.048 53.36 100.048 53.36Z" fill="white"/>
</svg>
